<svg width="21" height="21" viewBox="0 0 21 21" fill="none" xmlns="http://www.w3.org/2000/svg">
<g clip-path="url(#clip0_189_216)">
<path d="M17.1423 13.112V14.5182C17.1423 15.5538 16.3029 16.3932 15.2673 16.3932H13.9548M4.76733 13.112V14.5182C4.76733 15.5538 5.60681 16.3932 6.64233 16.3932H7.86108M4.76733 6.83075V5.70575C4.76733 4.67022 5.60681 3.83075 6.64233 3.83075H7.86108M17.1423 6.83075V5.70575C17.1423 4.67022 16.3029 3.83075 15.2673 3.83075H13.9548M4.76733 11.1667V9.97137V8.77606M17.1423 11.1667V9.97137V8.77606M11.9626 3.83075H10.7205H9.66577M11.9626 16.3932H10.7205H9.66577M7.57983 12.2682L9.84566 7.80742C9.85787 7.78338 9.88252 7.76825 9.90948 7.76825C9.93718 7.76825 9.96238 7.78422 9.97421 7.80926L12.0798 12.2682M8.70483 11.1432H10.7673M14.1423 12.2682V7.76825M17.1423 13.0182H18.4548M7.95483 16.3932V17.8932" stroke="black" stroke-width="1.35" stroke-linecap="round"/>
<path d="M4.76733 13.0182H3.26733" stroke="black" stroke-width="1.35" stroke-linecap="round" stroke-linejoin="round"/>
<path d="M7.95483 3.83075V2.33075" stroke="black" stroke-width="1.35" stroke-linecap="round"/>
<path d="M17.1423 6.83075H18.4548" stroke="black" stroke-width="1.35" stroke-linecap="round" stroke-linejoin="round"/>
<path d="M13.9548 16.3932V17.8932" stroke="black" stroke-width="1.35" stroke-linecap="round"/>
<path d="M17.8923 9.45575H17.3298V10.5807H17.8923V9.45575ZM19.9548 10.5807C20.2655 10.5807 20.5173 10.3289 20.5173 10.0182C20.5173 9.70758 20.2655 9.45575 19.9548 9.45575V10.5807ZM17.8923 10.5807H19.9548V9.45575H17.8923V10.5807ZM11.3298 16.9557V16.3932H10.2048V16.9557H11.3298ZM10.2048 19.0182C10.2048 19.3289 10.4567 19.5807 10.7673 19.5807C11.078 19.5807 11.3298 19.3289 11.3298 19.0182H10.2048ZM10.2048 16.9557V19.0182H11.3298V16.9557H10.2048ZM4.01733 9.45575H4.57983V10.5807H4.01733V9.45575ZM1.95483 10.5807C1.64417 10.5807 1.39233 10.3289 1.39233 10.0182C1.39233 9.70758 1.64417 9.45575 1.95483 9.45575V10.5807ZM4.01733 10.5807H1.95483V9.45575H4.01733V10.5807ZM11.3298 2.89325V3.45575H10.2048V2.89325H11.3298ZM10.2048 0.83075C10.2048 0.520081 10.4567 0.26825 10.7673 0.26825C11.078 0.26825 11.3298 0.520081 11.3298 0.83075H10.2048ZM10.2048 2.89325V0.83075H11.3298V2.89325H10.2048Z" fill="black"/>
<path d="M4.76733 6.83075H3.26733" stroke="black" stroke-width="1.35" stroke-linecap="round" stroke-linejoin="round"/>
<path d="M13.9548 3.83075V2.33075" stroke="black" stroke-width="1.35" stroke-linecap="round"/>
</g>
<defs>
<clipPath id="clip0_189_216">
<rect width="20" height="20" fill="white" transform="translate(0.954834 0.0182495)"/>
</clipPath>
</defs>
</svg>
