<svg width="20" height="20" viewBox="0 0 20 20" fill="none" xmlns="http://www.w3.org/2000/svg">
<path fill-rule="evenodd" clip-rule="evenodd" d="M14.4141 5.47673C14.0724 5.47673 13.7891 5.19339 13.7891 4.85173V3.83173C13.1441 3.81006 12.3866 3.81006 11.4974 3.81006H9.83073C8.94073 3.81006 8.18406 3.81006 7.53906 3.83173V4.85173C7.53906 5.19339 7.25573 5.47673 6.91406 5.47673C6.5724 5.47673 6.28906 5.19339 6.28906 4.85173V3.92173C5.50156 4.02422 4.96073 4.22172 4.58073 4.60173C4.07906 5.10339 3.89573 5.88506 3.82823 7.14339H17.4999C17.4324 5.88506 17.2482 5.10339 16.7474 4.60173C16.3674 4.22172 15.8266 4.02422 15.0391 3.92173V4.85173C15.0391 5.19339 14.7557 5.47673 14.4141 5.47673ZM17.5341 8.39339C17.5385 8.83395 17.5402 9.32006 17.5391 9.85172V10.6851C17.5391 11.0267 17.8224 11.3101 18.1641 11.3101C18.5057 11.3101 18.7891 11.0267 18.7891 10.6851V9.85172C18.7891 6.53506 18.7891 4.87672 17.6307 3.71839C16.9874 3.07506 16.1891 2.78923 15.0391 2.66173V1.93506C15.0391 1.59339 14.7557 1.31006 14.4141 1.31006C14.0724 1.31006 13.7891 1.59339 13.7891 1.93506V2.58089C13.1257 2.56006 12.3682 2.56006 11.4974 2.56006H9.83073C8.95906 2.56006 8.2024 2.56006 7.53906 2.58089V1.93506C7.53906 1.59339 7.25573 1.31006 6.91406 1.31006C6.5724 1.31006 6.28906 1.59339 6.28906 1.93506V2.66173C5.13906 2.78923 4.34073 3.07506 3.6974 3.71839C2.53906 4.87672 2.53906 6.54339 2.53906 9.85172V11.5184C2.53906 14.8351 2.53906 16.4934 3.6974 17.6517C4.85573 18.8101 6.51406 18.8101 9.83073 18.8101C10.1724 18.8101 10.4557 18.5267 10.4557 18.1851C10.4557 17.8434 10.1724 17.5601 9.83073 17.5601C6.86406 17.5601 5.3724 17.5601 4.58073 16.7684C3.78906 15.9767 3.78906 14.4851 3.78906 11.5184V9.85172C3.78851 9.32061 3.7899 8.8345 3.79323 8.39339H17.5341ZM14.8307 19.2267C12.6474 19.2267 10.8724 17.4517 10.8724 15.2684C10.8724 13.0851 12.6474 11.3101 14.8307 11.3101C17.0141 11.3101 18.7891 13.0851 18.7891 15.2684C18.7891 17.4517 17.0141 19.2267 14.8307 19.2267ZM14.8307 12.5601C13.3391 12.5601 12.1224 13.7767 12.1224 15.2684C12.1224 16.7601 13.3391 17.9767 14.8307 17.9767C16.3224 17.9767 17.5391 16.7601 17.5391 15.2684C17.5391 13.7767 16.3224 12.5601 14.8307 12.5601ZM15.2224 16.5434C15.3474 16.6684 15.5057 16.7267 15.6641 16.7267C15.8224 16.7267 15.9807 16.6684 16.1057 16.5434C16.3474 16.3017 16.3474 15.9017 16.1057 15.6601L15.4557 15.0101V13.6017C15.4557 13.2601 15.1724 12.9767 14.8307 12.9767C14.4891 12.9767 14.2057 13.2601 14.2057 13.6017V15.2684C14.2057 15.4351 14.2724 15.5934 14.3891 15.7101L15.2224 16.5434Z" fill="black"/>
</svg>
