<svg width="24" height="24" viewBox="0 0 24 24" fill="none" xmlns="http://www.w3.org/2000/svg">
<g clip-path="url(#clip0_189_350)">
<path d="M9 0H3C1.897 0 1 0.898 1 2V9C1 10.103 1.897 11 3 11H9C10.103 11 11 10.103 11 9V2C11 0.898 10.103 0 9 0ZM3 4H7V5H3V4ZM9 8H3V7H9V8ZM21 0H15C13.897 0 13 0.898 13 2V9C13 10.103 13.897 11 15 11H21C22.103 11 23 10.103 23 9V2C23 0.898 22.103 0 21 0ZM15 4H19V5H15V4ZM21 8H15V7H21V8ZM9 13H3C1.897 13 1 13.898 1 15V22C1 23.103 1.897 24 3 24H9C10.103 24 11 23.103 11 22V15C11 13.898 10.103 13 9 13ZM3 17H7V18H3V17ZM9 21H3V20H9V21ZM21 13H15C13.897 13 13 13.898 13 15V22C13 23.103 13.897 24 15 24H21C22.103 24 23 23.103 23 22V15C23 13.898 22.103 13 21 13ZM15 17H19V18H15V17ZM21 21H15V20H21V21Z" fill="#757575"/>
</g>
<defs>
<clipPath id="clip0_189_350">
<rect width="24" height="24" fill="white"/>
</clipPath>
</defs>
</svg>
