<svg width="21" height="21" viewBox="0 0 21 21" fill="none" xmlns="http://www.w3.org/2000/svg">
<path d="M18.8638 10.3271C18.8638 5.83998 15.2259 2.20209 10.7388 2.20209C6.25166 2.20209 2.61377 5.83998 2.61377 10.3271C2.61377 14.8142 6.25166 18.4521 10.7388 18.4521C15.2259 18.4521 18.8638 14.8142 18.8638 10.3271Z" stroke="black" stroke-width="1.25" stroke-miterlimit="10"/>
<path d="M18.1438 7.05187C17.5165 7.05578 17.5782 8.2132 16.7966 7.66711C16.5063 7.46476 16.3278 7.17062 15.9634 7.08117C15.645 7.00305 15.3188 7.08429 15.0044 7.13859C14.647 7.20031 14.2231 7.22804 13.952 7.49875C13.6899 7.75929 13.5512 8.1089 13.2723 8.37101C12.7329 8.87883 12.5052 9.43312 12.8544 10.1511C13.1903 10.8413 13.893 11.2159 14.6512 11.1667C15.3962 11.1171 16.17 10.6851 16.1485 11.7675C16.1407 12.1503 16.2208 12.4159 16.3384 12.7718C16.4473 13.0999 16.4399 13.4179 16.4649 13.7566C16.511 14.3894 16.6274 15.0987 16.9415 15.6577L17.5274 14.8312C17.5997 14.7288 17.7509 14.5855 17.7868 14.4648C17.8505 14.2511 17.7251 13.8839 17.7106 13.6445C17.6962 13.405 17.7032 13.1624 17.6665 12.923C17.6149 12.5874 17.4165 12.273 17.3891 11.9413C17.3387 11.3237 17.4516 10.8308 16.9759 10.3144C16.5165 9.81633 15.843 9.69679 15.1997 9.79797C14.8755 9.84875 13.5704 10.0573 14.0942 9.31633C14.1977 9.17062 14.3786 9.05109 14.495 8.91242C14.5962 8.79172 14.6841 8.56984 14.8028 8.4757C14.9216 8.38156 15.4669 8.27336 15.6231 8.3214C15.7794 8.36945 15.9423 8.59484 16.0778 8.69484C16.3283 8.88346 16.6205 9.00888 16.9298 9.06047C17.4634 9.13859 18.579 8.82844 18.5704 8.14406C18.5688 7.81594 18.2641 7.3589 18.1438 7.05187ZM11.9673 12.6831C11.7591 11.8066 10.568 11.5136 9.92586 11.0382C9.55672 10.7648 9.2282 10.3425 8.74344 10.3081C8.52 10.2921 8.33289 10.3405 8.11141 10.2831C7.90828 10.2308 7.74891 10.1214 7.5325 10.1499C7.1282 10.203 6.87312 10.6351 6.43875 10.5765C6.02664 10.521 5.60203 10.039 5.50828 9.6464C5.38797 9.14172 5.78719 8.97804 6.21492 8.93312C6.39344 8.91437 6.59383 8.89406 6.76531 8.95929C6.99109 9.04328 7.09773 9.26437 7.30047 9.37609C7.68055 9.58429 7.7575 9.25148 7.6993 8.91398C7.61219 8.40851 7.51062 8.20226 7.96141 7.85461C8.27391 7.61476 8.54109 7.44133 8.49109 7.01047C8.46141 6.75734 8.32273 6.64289 8.45203 6.39094C8.55008 6.19914 8.81922 6.02609 8.99461 5.91164C9.44734 5.61633 10.9341 5.6382 10.3266 4.81164C10.1481 4.56906 9.81883 4.13547 9.50633 4.07609C9.1157 4.00226 8.94226 4.4382 8.67 4.63039C8.38875 4.82922 7.84109 5.055 7.55945 4.74758C7.18055 4.3339 7.81062 4.19797 7.95008 3.90929C8.08953 3.62062 7.62703 3.07492 7.37937 2.93664L6.21492 4.2425C6.18147 4.46119 6.19311 4.68442 6.24914 4.89845C6.30517 5.11247 6.40439 5.31277 6.5407 5.48703C6.77234 5.78508 7.14109 5.88078 7.15789 6.28781C7.1743 6.67844 7.11336 6.87844 6.85789 7.15304C6.74734 7.27023 6.66922 7.43664 6.55672 7.5464C6.41883 7.68039 6.47 7.63937 6.25477 7.67609C5.85008 7.74445 5.50555 7.84992 5.11453 7.95773C4.46297 8.13781 4.40281 7.07336 4.10594 6.65578L3.12937 7.44445C3.11883 7.57375 3.28953 7.81164 3.33601 7.95226C3.60281 8.75578 4.14109 9.37726 4.48875 10.146C4.85476 10.9601 5.83758 10.7343 6.27156 11.4476C6.65672 12.0804 6.24539 12.8816 6.53367 13.5441C6.74305 14.0249 7.2368 14.13 7.57742 14.4816C7.92547 14.8366 7.91805 15.3226 7.97117 15.7847C8.03106 16.3282 8.12829 16.867 8.26219 17.3972C8.30945 17.5804 8.35281 17.8226 8.4782 17.9737C8.56414 18.0777 8.85906 18.1671 8.73992 18.2015C8.90633 18.2288 9.20281 18.3843 9.34148 18.2702C9.5243 18.1202 9.47547 17.6585 9.50711 17.4499C9.60203 16.8288 9.91297 16.2214 10.3325 15.7566C10.747 15.298 11.3149 14.9874 11.6649 14.4675C12.0059 13.9605 12.1087 13.2765 11.9673 12.6831ZM10.663 13.7112C10.4286 14.1296 9.90672 14.4097 9.57117 14.7421C9.48016 14.8323 9.28641 15.1448 9.17234 15.0773C9.0907 15.0288 9.06297 14.6234 9.03289 14.5304C8.87772 14.0622 8.58149 13.6536 8.18484 13.3605C8.06258 13.2679 7.75945 13.1476 7.68953 13.0206C7.61141 12.8827 7.68172 12.5573 7.68445 12.4073C7.68875 12.1886 7.58914 11.8249 7.64305 11.6261C7.70555 11.3968 7.58523 11.5351 7.79031 11.4898C7.89852 11.4655 8.34539 11.5441 8.48015 11.5722C8.69422 11.6167 8.81219 11.7499 8.98094 11.8847C9.42469 12.2405 9.91336 12.5159 10.4106 12.7886C10.7958 13.0019 10.9091 13.2718 10.663 13.7112ZM7.94422 2.94836C8.12937 3.12922 8.30359 3.34328 8.57976 3.36125C8.84109 3.37883 9.08758 3.23742 9.3157 3.41515C9.56883 3.61047 9.75125 3.85773 10.0872 3.91867C10.4122 3.97765 10.7563 3.78781 10.8368 3.45539C10.9149 3.13859 10.7466 2.79406 10.7364 2.47609C10.7364 2.43195 10.7602 2.23586 10.7298 2.20265C10.7071 2.17765 10.518 2.20578 10.4891 2.20656C10.2774 2.21281 10.0662 2.22739 9.85555 2.25031C9.08751 2.33344 8.33534 2.52615 7.62195 2.82258C7.71687 2.8882 7.83602 2.91437 7.94422 2.94836ZM14.6606 5.14289C14.9923 5.14289 15.329 4.99445 15.222 4.61086C15.1321 4.28937 14.979 3.94054 14.6063 4.11398C14.3692 4.22414 14.0333 4.50461 14.0055 4.78273C13.9739 5.09836 14.4395 5.14289 14.6606 5.14289ZM14.3958 6.8214C14.7345 7.02414 15.2368 6.92883 15.4923 6.63937C15.6919 6.41281 15.8095 6.01945 16.1684 6.01984C16.3265 6.01951 16.4783 6.08139 16.5911 6.19211C16.7395 6.34562 16.7102 6.48976 16.7419 6.68195C16.8126 7.11359 17.2755 6.70656 17.3962 6.53937C17.4743 6.43039 17.5802 6.26867 17.5446 6.12687C17.5118 5.99445 17.3571 5.85344 17.2884 5.73195C17.0876 5.38039 16.9223 4.9714 16.6216 4.68742C16.3321 4.41398 15.9762 4.44562 15.7016 4.72961C15.4766 4.96398 15.2153 5.14953 15.0614 5.43469C14.9528 5.63508 14.8305 5.73078 14.6106 5.78273C14.4895 5.81125 14.3512 5.82179 14.2497 5.90304C13.9669 6.1257 14.1278 6.66047 14.3958 6.8214Z" fill="black"/>
</svg>
