<svg width="21" height="21" viewBox="0 0 21 21" fill="none" xmlns="http://www.w3.org/2000/svg">
<path d="M10.4636 5.61041V8.38541" stroke="black" stroke-width="1.25" stroke-miterlimit="10" stroke-linecap="round"/>
<path d="M10.4802 1.9104C7.41354 1.9104 4.9302 4.39373 4.9302 7.4604V9.2104C4.9302 9.77707 4.69687 10.6271 4.4052 11.1104L3.34687 12.8771C2.69687 13.9687 3.14687 15.1854 4.34687 15.5854C8.3302 16.9104 12.6385 16.9104 16.6219 15.5854C17.7469 15.2104 18.2302 13.8937 17.6219 12.8771L16.5635 11.1104C16.2719 10.6271 16.0385 9.76873 16.0385 9.2104V7.4604C16.0302 4.4104 13.5302 1.9104 10.4802 1.9104Z" stroke="black" stroke-width="1.25" stroke-miterlimit="10" stroke-linecap="round"/>
<path d="M13.2385 15.9271C13.2385 17.4521 11.9885 18.7021 10.4635 18.7021C9.70514 18.7021 9.00514 18.3854 8.50514 17.8854C8.00514 17.3854 7.68848 16.6854 7.68848 15.9271" stroke="black" stroke-width="1.25" stroke-miterlimit="10"/>
</svg>
