<svg width="21" height="21" viewBox="0 0 21 21" fill="none" xmlns="http://www.w3.org/2000/svg">
<path d="M15.9549 5.98494C15.9049 5.97661 15.8465 5.97661 15.7965 5.98494C14.6465 5.94327 13.7299 5.0016 13.7299 3.83494C13.7299 2.64327 14.6882 1.68494 15.8799 1.68494C17.0715 1.68494 18.0299 2.6516 18.0299 3.83494C18.0215 5.0016 17.1049 5.94327 15.9549 5.98494Z" stroke="black" stroke-width="1.5" stroke-linecap="round" stroke-linejoin="round"/>
<path d="M15.0965 12.0516C16.2382 12.2433 17.4965 12.0433 18.3799 11.4516C19.5549 10.6683 19.5549 9.38495 18.3799 8.60162C17.4882 8.00995 16.2132 7.80994 15.0715 8.00994" stroke="black" stroke-width="1.5" stroke-linecap="round" stroke-linejoin="round"/>
<path d="M5.92974 5.98494C5.97974 5.97661 6.03807 5.97661 6.08807 5.98494C7.23807 5.94327 8.15474 5.0016 8.15474 3.83494C8.15474 2.64327 7.1964 1.68494 6.00474 1.68494C4.81307 1.68494 3.85474 2.6516 3.85474 3.83494C3.86307 5.0016 4.77974 5.94327 5.92974 5.98494Z" stroke="black" stroke-width="1.5" stroke-linecap="round" stroke-linejoin="round"/>
<path d="M6.78812 12.0516C5.64645 12.2433 4.38812 12.0433 3.50479 11.4516C2.32979 10.6683 2.32979 9.38495 3.50479 8.60162C4.39645 8.00995 5.67145 7.80994 6.81312 8.00994" stroke="black" stroke-width="1.5" stroke-linecap="round" stroke-linejoin="round"/>
<path d="M10.9549 12.2099C10.9049 12.2016 10.8465 12.2016 10.7965 12.2099C9.64652 12.1682 8.72986 11.2266 8.72986 10.0599C8.72986 8.86825 9.68819 7.90991 10.8799 7.90991C12.0715 7.90991 13.0299 8.87658 13.0299 10.0599C13.0215 11.2266 12.1049 12.1766 10.9549 12.2099Z" stroke="black" stroke-width="1.5" stroke-linecap="round" stroke-linejoin="round"/>
<path d="M8.52981 14.8349C7.35481 15.6183 7.35481 16.9016 8.52981 17.6849C9.86314 18.5766 12.0465 18.5766 13.3798 17.6849C14.5548 16.9016 14.5548 15.6183 13.3798 14.8349C12.0548 13.9516 9.86314 13.9516 8.52981 14.8349Z" stroke="black" stroke-width="1.5" stroke-linecap="round" stroke-linejoin="round"/>
</svg>
